<svg xmlns="http://www.w3.org/2000/svg" width="102" height="127" viewBox="0 0 102 127">
    <g fill="none" fill-rule="evenodd">
        <g>
            <g>
                <g>
                    <path fill="#B2563D" d="M69.316 48.902L70.329 50.64 72.538 51 76 48.474 72.188 47.044 69 47 69.316 48.902M53 38.131L55.437 41.596 68.363 50 69 48.031 58.216 39.424 57.416 36 53 38.131" transform="translate(-262 -130) translate(70 72) translate(192 58)"/>
                    <path fill="#3D238C" d="M16.968 80L12 84.753 21.465 104 28 102.435 16.968 80" transform="translate(-262 -130) translate(70 72) translate(192 58)"/>
                    <path fill="#A494FF" d="M25.54 72l-3.021-.78-20.316-5.257c-1.47-.38-1.636-2.328-.258-3.031l17.766-9.063c4.308-2.198 9.141-3.168 13.91-2.789l2.292.182L53 52.62 25.54 72M52.424 114.082l-20.466 10.753c-1.105.58-2.302-.466-1.866-1.627l8.68-23.086.063-.164L70 89l-9.68 16.437-1.51 2.56c-1.517 2.582-3.737 4.693-6.386 6.085" transform="translate(-262 -130) translate(70 72) translate(192 58)"/>
                    <path fill="#00BFA6" d="M45.247 100.394c-5.401 1.393-11.289 2.307-17.694 2.606L15 78.726c23.163-29.101 53.267-31.835 70.733-30.44 1.757.143 3.384.323 4.864.528 5.856.8 9.403 1.9 9.403 1.9s-1.832 5.493-6.327 12.925c-7.482 12.356-22.336 30.06-48.426 36.755" transform="translate(-262 -130) translate(70 72) translate(192 58)"/>
                    <path fill="#A494FF" d="M70.299 79.575c-5.945 3.13-13.136.932-16.063-4.908-2.926-5.841-.479-13.113 5.466-16.242 5.945-3.13 13.136-.932 16.062 4.908 2.926 5.841.48 13.113-5.465 16.242" transform="translate(-262 -130) translate(70 72) translate(192 58)"/>
                    <path fill="#FFF" d="M68.974 77.05c-4.459 2.086-9.852.621-12.047-3.272-2.195-3.894-.36-8.742 4.1-10.828 4.458-2.086 9.851-.621 12.046 3.272 2.195 3.894.36 8.742-4.1 10.828" transform="translate(-262 -130) translate(70 72) translate(192 58)"/>
                    <path fill="#D7D4FF" d="M57.644 76.428c-2.199-4.107-.36-9.22 4.107-11.42 2.714-1.338 5.773-1.29 8.249-.127-2.593-2.893-7.124-3.772-10.964-1.88-4.467 2.201-6.306 7.314-4.107 11.421.863 1.612 2.22 2.827 3.82 3.578-.424-.472-.797-.996-1.105-1.572" transform="translate(-262 -130) translate(70 72) translate(192 58)"/>
                    <path fill="#8F6DFF" d="M53.926 114.467l-20.925 10.374c-1.129.56-2.353-.45-1.907-1.57L39.968 101l-.793 1.989s6.726 9.847 22.825 3.138l-1.544 2.47c-1.551 2.491-3.82 4.528-6.53 5.87" transform="translate(-262 -130) translate(70 72) translate(192 58)"/>
                    <path fill="#3D238C" d="M33.624 127c-.4 0-.79-.127-1.098-.376-.5-.402-.657-1.005-.413-1.576L38.14 111l.458.157-6.027 14.048c-.203.474.013.875.282 1.092.29.232.794.39 1.344.137l18.58-8.554.223.392-18.58 8.553c-.255.118-.527.175-.796.175" transform="translate(-262 -130) translate(70 72) translate(192 58)"/>
                    <path fill="#078471" d="M44.277 100.394c-5.406 1.393-11.3 2.307-17.71 2.606L14 78.726c23.187-29.101 53.321-31.835 70.805-30.44 1.759.143 3.388.323 4.869.528.247.325.378.705.306 1.188-.932.149-1.863.267-2.8.368-8.491.896-16.67 1.269-25.013 3.57C51.22 56.965 35.53 62.163 30.27 73.05c-3.625 7.491-2.014 16.896 4.485 21.372 2.422 1.67 9.521 5.972 9.521 5.972" transform="translate(-262 -130) translate(70 72) translate(192 58)"/>
                    <path fill="#A494FF" d="M93.792 65L86 49c8.538.731 14 2.53 14 2.53S98.202 57.254 93.792 65" transform="translate(-262 -130) translate(70 72) translate(192 58)"/>
                    <path fill="#3D238C" d="M100 51l-12.878-.179L86 49c8.538.578 14 2 14 2" transform="translate(-262 -130) translate(70 72) translate(192 58)"/>
                    <path fill="#8F6DFF" d="M22.573 71L2.206 65.54c-1.473-.394-1.64-2.417-.259-3.148l17.81-9.413c4.32-2.282 9.165-3.29 13.947-2.896l2.296.189C21.75 59.478 22.573 71 22.573 71" transform="translate(-262 -130) translate(70 72) translate(192 58)"/>
                    <path fill="#3D238C" d="M12.828 66L1.41 63.154c-.776-.193-1.312-.78-1.4-1.53-.089-.777.337-1.516 1.087-1.884L12.778 54l.222.414-11.68 5.739c-.69.339-.879.956-.825 1.42.064.554.462.988 1.039 1.131L12.95 65.55l-.122.45" transform="translate(-262 -130) translate(70 72) translate(192 58)"/>
                    <path fill="#FFF" d="M71 85.07c-.19.18-.395.344-.6.509-.211.156-.422.315-.641.463-.44.296-.895.573-1.366.831-.471.257-.965.484-1.475.684-.512.197-1.03.384-1.542.577-.513.191-1.03.375-1.55.553-.523.172-1.049.337-1.577.496-1.063.304-2.13.59-3.217.817L59 89.92c1.033-.355 2.055-.72 3.053-1.127.502-.199.998-.404 1.49-.616.494-.21.984-.425 1.47-.647.483-.222.955-.463 1.425-.707.47-.242.948-.469 1.441-.678.492-.21.99-.414 1.497-.608.254-.098.511-.19.77-.282.262-.09.522-.18.798-.255l.056.07M89 65.073c-.285.868-.677 1.68-1.097 2.472-.429.788-.895 1.554-1.401 2.29-.502.74-1.06 1.438-1.657 2.102l-.91.983c-.307.323-.615.645-.92.97-.3.33-.612.646-.925.964-.313.316-.617.64-.938.948l-.965.922-.242.23-.247.223-.495.446c-1.316 1.195-2.7 2.309-4.11 3.377L75 80.89c1.262-1.24 2.52-2.472 3.7-3.78l.448-.483.223-.243.218-.248.869-.991c.294-.326.57-.669.855-1.001.283-.335.568-.669.84-1.014.273-.343.548-.684.812-1.035l.78-1.06c.513-.71 1.054-1.396 1.612-2.07.563-.67 1.129-1.34 1.713-2.001.58-.663 1.175-1.32 1.807-1.964l.123.073" transform="translate(-262 -130) translate(70 72) translate(192 58)"/>
                    <path fill="#3D238C" d="M50.19 103l-.19-.654C61.903 98.38 72.518 91.536 81.552 82l.448.488C72.893 92.101 62.19 99.002 50.19 103M86.645 78l-.483-.405c3.254-3.68 6.227-7.69 8.838-11.917 3.88-6.29 5.81-11.229 6.27-12.473-1-.277-4.308-1.136-9.156-1.784-1.544-.21-3.195-.386-4.908-.523-2.056-.16-4.144-.254-6.206-.277l.007-.621c2.077.023 4.18.117 6.25.28 1.726.137 3.39.314 4.945.525 5.889.789 9.538 1.887 9.575 1.898.08.025.149.08.188.155.039.074.046.16.019.24-.019.054-1.919 5.574-6.437 12.9-2.63 4.258-5.625 8.296-8.902 12.002M26.042 99l-9.007-17.69c-.057-.11-.044-.243.033-.34 8.11-10.348 17.766-18.259 28.7-23.513 8.679-4.17 18.16-6.679 28.183-7.457l.049.631c-9.946.773-19.353 3.261-27.962 7.398-10.79 5.185-20.329 12.982-28.353 23.174l8.916 17.508-.559.289" transform="translate(-262 -130) translate(70 72) translate(192 58)"/>
                    <path fill="#A494FF" d="M23.625 93.913c-9.9 5.482-18.653 8.399-19.55 6.514-.898-1.885 6.4-7.857 16.3-13.34 9.9-5.482 18.653-8.399 19.55-6.514.898 1.885-6.4 7.857-16.3 13.34" transform="translate(-262 -130) translate(70 72) translate(192 58)"/>
                    <path fill="#FFF" d="M21 91c-.997.685-2.006 1.338-3.01 1.997-.5.333-1.008.653-1.505.989-.502.329-1.005.656-1.5.993-.502.328-.999.664-1.495 1.001-.501.33-.991.674-1.492 1.006C11.005 97.66 10.014 98.34 9 99c.856-.846 1.772-1.629 2.719-2.375.234-.19.474-.372.715-.553.24-.182.484-.36.727-.538.243-.179.492-.349.74-.521.247-.173.497-.343.748-.511.252-.167.506-.33.76-.492.255-.163.509-.327.768-.482.258-.158.519-.312.78-.465.258-.156.523-.302.787-.449C18.801 92.026 19.882 91.476 21 91M34 83c-.833.347-1.663.687-2.494 1.023l-2.49 1.01-2.494 1.004c-.834.33-1.668.664-2.522.963.767-.47 1.56-.894 2.368-1.287.806-.4 1.633-.755 2.465-1.1.42-.163.839-.331 1.263-.484.425-.151.85-.304 1.28-.438.86-.275 1.732-.524 2.624-.691" transform="translate(-262 -130) translate(70 72) translate(192 58)"/>
                    <path fill="#5752E3" d="M38.785 45s-4.98 4.449 10.15 17.31c0 0-1.474 4.544 7.763 18.69L59 80.785l-4.381-19.512S52.99 52.61 48.083 46.18c-.571-.747-1.456-1.18-2.39-1.18h-6.908" transform="translate(-262 -130) translate(70 72) translate(192 58)"/>
                    <path fill="#1F1440" d="M56.382 82.22L56 83.707l1.914.626s1.072-.334 1.57.667H64s-.41-2.443-5.442-3l-2.176.22" transform="translate(-262 -130) translate(70 72) translate(192 58)"/>
                    <path fill="#2C2C75" d="M57.633 82c-1.857-4.111-4.312-10.168-5.468-15.67-.549-2.614-.598-4.116-.593-4.663h-.548c-.114 0-.205-.098-.205-.219v-1.574c-6.76-7.525-8.8-13.669-8.819-13.73l.385-.144c.02.06 2.048 6.155 8.785 13.634.037.04.057.095.057.152v1.443h.557c.057 0 .111.026.15.07.039.046.058.106.054.167-.002.015-.104 1.548.584 4.808 1.15 5.452 3.586 11.457 5.428 15.535l-.367.191" transform="translate(-262 -130) translate(70 72) translate(192 58)"/>
                    <path fill="#FFA800" d="M53.564 40s-5.23-8.004-4.493-11.912c.221-1.164.972-1.965 2.549-2.082C55.84 25.694 59 37.548 59 37.548l-2.067.932-3.37 1.52" transform="translate(-262 -130) translate(70 72) translate(192 58)"/>
                    <path fill="#D1422F" d="M53.602 39s-5.274-7.837-4.53-11.663C50.502 27.27 52.179 26 52.179 26s.178 5.487 4.82 11.512H57L53.602 39" transform="translate(-262 -130) translate(70 72) translate(192 58)"/>
                    <path fill="#93402C" d="M54.381 40.217L59.267 39.286 58.716 37.042 53.446 39.167 54.381 40.217" transform="translate(-262 -130) translate(70 72) translate(192 58) rotate(-6 56.356 38.63)"/>
                    <path fill="#B2563D" d="M32.723 5L31 3.565 31.143 1.22 33.59 1 36 2.951 35.027 4.793 32.723 5" transform="translate(-262 -130) translate(70 72) translate(192 58)"/>
                    <path fill="#241F3F" d="M49.571 16.177c-.673.14-1.25.636-1.47 1.262-.22.626-.074 1.36.372 1.867.32.364.766.603 1.124.933.373.343.646.785.782 1.263.096.34.127.705.321 1.004.345.533 1.21.662 1.702.254.374-.311.492-.818.547-1.292.136-1.195 0-2.42-.398-3.563-.203-.585-.492-1.173-.999-1.554-.506-.381-1.277-.495-1.785-.122l-.196-.052" transform="translate(-262 -130) translate(70 72) translate(192 58)"/>
                    <path fill="#FFF" d="M52.513 25l-2.076.186L46 46.782 48.445 49l2.116-1.18S54.308 33.856 52.513 25" transform="translate(-262 -130) translate(70 72) translate(192 58)"/>
                    <path fill="#D1422F" d="M51.652 25s4.691 11.902-3.43 24L46 48.358S53.373 37.953 51.652 25" transform="translate(-262 -130) translate(70 72) translate(192 58)"/>
                    <path fill="#B2563D" d="M53 23.52l-.731 3.154c-.063.27-.419.409-.702.274L49 25.726 50.365 22 53 23.52" transform="translate(-262 -130) translate(70 72) translate(192 58)"/>
                    <path fill="#241F3F" d="M49 15.561L53.337 14 54 17.017 50.317 19 49 15.561" transform="translate(-262 -130) translate(70 72) translate(192 58)"/>
                    <path fill="#B2563D" d="M58.937 19.173c-.001.039-.008.077-.013.116-.154 1.133-.596 2.238-1.313 3.205-.222.3-.461.597-.767.842-.762.606-2.608.828-3.607.537-.896-.262-1.6-.884-2.034-1.591-.433-.708-.628-1.5-.762-2.285-.773.058-1.517-.573-1.435-1.218.084-.647.598-1.04 1.704-.82.034 0 .07-.002.105-.006 2.142-.128 3.848-1.262 5.867-1.703.357-.078 1.395-.4 1.678-.166.122.1.2.29.264.419.154.292.247.604.303.918.068.382.083.768.067 1.153-.01.202-.03.402-.057.6" transform="translate(-262 -130) translate(70 72) translate(192 58)"/>
                    <path fill="#B2563D" d="M57 16.971c-.87.112-1.872-.11-3.045-.524-.339-.12-.658-.192-.955-.228.682-.353 1.365-.717 2.094-.936.298-.088 1.162-.454 1.398-.188.102.114.166.328.22.474.128.332.205.685.252 1.04.017.12.029.24.036.362" transform="translate(-262 -130) translate(70 72) translate(192 58)"/>
                    <path fill="#93402C" d="M57.938 17.977c-1.56.073-4.666-.027-6.281-.335-.96-.184-1.43-.515-1.657-.81 2.093-.12 3.76-1.183 5.734-1.598.35-.072 1.364-.375 1.64-.155.12.094.196.271.258.393.151.274.242.567.297.86.066.36.08.722.065 1.084-.01.188-.03.376-.056.561" transform="translate(-262 -130) translate(70 72) translate(192 58)"/>
                    <path fill="#241F3F" d="M55.532 14.999c.665-.036.601-1.034-.067-.998-.662.037-.598 1.035.067.998" transform="translate(-262 -130) translate(70 72) translate(192 58)"/>
                    <path fill="#FFF" d="M53.105 20.18l1.807-.18c.055-.005.099.08.086.17-.069.509-.339 1.91-1.21 1.826-.906-.086-.807-1.342-.758-1.71.007-.06.038-.102.075-.105" transform="translate(-262 -130) translate(70 72) translate(192 58)"/>
                    <path fill="#241F3F" d="M48.044 16.971c.005.032.006.023.01.027.003.004.004 0 .006 0 .006-.003.008-.01.012-.016.007-.012.013-.03.014-.045.008-.036.004-.075-.008-.12-.028-.085-.108-.185-.224-.25-.115-.07-.253-.117-.4-.147-.145-.032-.298-.042-.454-.05.137-.085.279-.169.432-.234.152-.066.316-.117.498-.132.18-.017.39.015.6.148.1.07.202.163.282.285.042.059.077.125.109.196.015.036.03.072.044.114.006.02.012.038.018.064.006.026.012.04.017.094l-.956.066M50.789 17.074c-.05.142-.089.315-.115.477-.026.165-.042.332-.035.498.01.33.086.673.361.951-.182-.097-.337-.234-.461-.39-.127-.154-.214-.327-.291-.502-.076-.176-.129-.357-.17-.54-.04-.187-.07-.363-.078-.568l.789.074" transform="translate(-262 -130) translate(70 72) translate(192 58)"/>
                    <path fill="#241F3F" d="M60.703 15.069c-.891 1.787-1.958 2.55-3.333 2.69-.935.094-2.01-.099-3.27-.456-.365-.104-.706-.166-1.026-.198-1.474-.144-2.457.406-2.995.85h-.002c-.032.004-.061.006-.092.006-.443-.098-.78-.074-1.023.039L48 17.253c.378-6.189 4.823-3.668 4.823-3.668l1.18-1.668c3.78-4.607 8.191.156 6.7 3.152" transform="translate(-262 -130) translate(70 72) translate(192 58)"/>
                    <path fill="#241F3F" d="M48.017 17c-.19-.165-.332-.318-.474-.481-.138-.161-.258-.327-.353-.496-.095-.168-.17-.34-.185-.516-.018-.174.013-.353.15-.507-.034.168.044.327.156.476.112.15.272.29.45.422.177.134.374.26.584.382.208.12.438.242.655.34l-.983.38M50.196 16.613c.292-.166.556-.267.846-.356.285-.083.578-.141.877-.156.593-.03 1.214.099 1.735.448l.194.13.162.116c.11.074.224.143.341.207.235.127.481.234.734.319.504.173 1.031.264 1.56.264.264-.005.527-.032.788-.083.258-.06.515-.137.76-.25.491-.225.94-.57 1.319-1.002.757-.876 1.21-2.052 1.488-3.25-.222 1.213-.615 2.428-1.358 3.389-.372.474-.83.87-1.342 1.141-.257.138-.527.238-.802.319-.276.073-.558.12-.84.141-.567.036-1.138-.027-1.69-.18-.276-.075-.549-.173-.815-.298-.132-.062-.264-.131-.394-.208l-.192-.121-.165-.097c-.44-.26-.944-.33-1.439-.277-.248.028-.495.093-.736.179-.235.086-.486.205-.679.331l-.012.009c-.171.112-.39.045-.488-.15-.099-.193-.04-.442.13-.554l.018-.01" transform="translate(-262 -130) translate(70 72) translate(192 58)"/>
                    <path fill="#514B66" d="M58.478 10c.615.317 1.103.867 1.345 1.51.245.649.215 1.367.036 2.029-.084.335-.239.652-.43.946-.111.135-.206.286-.344.4-.065.06-.126.124-.195.18l-.217.154c-.592.406-1.315.566-2.016.625-.706.053-1.415.001-2.11-.109-.345-.063-.693-.12-1.031-.208-.347-.079-.672-.166-1.003-.212l-.25-.033c-.082-.009-.165-.008-.247-.012-.166-.014-.329.006-.492.014-.323.042-.636.128-.913.276-.562.294-.944.841-1.149 1.44L49 16.843c.25-.673.723-1.317 1.41-1.652.338-.168.707-.257 1.074-.293.184-.005.369-.02.55 0 .09.006.18.008.27.02l.267.043c.355.06.7.164 1.027.248.331.095.668.161 1.003.232.674.127 1.36.197 2.04.164.675-.037 1.365-.17 1.93-.535l.21-.139c.064-.05.124-.11.187-.164.134-.103.225-.243.336-.368.189-.273.347-.57.437-.893.193-.637.245-1.336.025-1.976-.218-.635-.682-1.195-1.288-1.53" transform="translate(-262 -130) translate(70 72) translate(192 58)"/>
                    <path fill="#FFA800" d="M53 27.041c0 3.185-4.049 20.481-4.049 20.481-5.245 1.79-9.26 1.977-11.951.434 0 0 .678-5.847 2.698-11.767 1.526-4.474 3.818-8.989 7.165-11.053 1.025-.632 2.148-1.034 3.378-1.135 0 0 2.759-.144 2.759 3.04" transform="translate(-262 -130) translate(70 72) translate(192 58)"/>
                    <path fill="#FFF" d="M41.102 50L41 49.999l.01-.408c.032.001 3.098.082 6.39-1.478L48.643 42l.357.09-1.263 6.214c-.013.064-.052.117-.106.142C44.569 49.922 41.675 50 41.102 50" transform="translate(-262 -130) translate(70 72) translate(192 58)"/>
                    <path fill="#D1422F" d="M51 27.14S47.975 35.144 40 36c1.606-4.452 4.018-8.946 7.54-11L51 27.14" transform="translate(-262 -130) translate(70 72) translate(192 58)"/>
                    <path fill="#B2563D" d="M39.632 23L35.125 20.106 33 7.18 35.279 7 38.881 18.392 43 19.568 39.632 23" transform="translate(-262 -130) translate(70 72) translate(192 58)"/>
                    <path fill="#FFA800" d="M39 23.291L42.45 19s9.437 5.355 8.482 9.062C49.977 31.769 39 23.292 39 23.292" transform="translate(-262 -130) translate(70 72) translate(192 58)"/>
                    <path fill="#93402C" d="M37 23.215L38.731 19 41 19.849 37.933 24 37 23.215" transform="translate(-262 -130) translate(70 72) translate(192 58)"/>
                    <path fill="#FFF" d="M49.62 27c-.175-3.024-6.827-6.966-7.894-7.58L39.3 22.428 39 22.206l2.527-3.135c.059-.073.164-.092.247-.046.02.01 2.018 1.124 4.014 2.641 2.71 2.06 4.127 3.847 4.212 5.314l-.38.02" transform="translate(-262 -130) translate(70 72) translate(192 58)"/>
                    <path fill="#6737C2" d="M54.026.841c-.048-.101-.03-.226.053-.31.152-.156.306-.307.462-.456.11-.105.283-.099.385.012.103.11.098.286-.012.39-.152.144-.302.292-.449.441-.106.109-.278.11-.384.002-.023-.023-.042-.05-.055-.079M96.046 21.867c-.032-.033-.05-.07-.045-.108.017-.178.028-.356.035-.533.006-.128.228-.229.493-.226.266.003.477.108.47.236-.009.18-.02.362-.037.543-.011.127-.235.226-.502.22-.185-.003-.34-.057-.414-.132" transform="translate(-262 -130) translate(70 72) translate(192 58)"/>
                </g>
            </g>
        </g>
    </g>
</svg>
